# xmcd
#
# Track frame offsets:
#	150
#	13450
#	25517
#	38902
#	52832
#	64720
#	81185
#	94650
#	108042
#	121735
#	133915
#	148717
#	161510
#	174852
#	187202
#	201350
#	216002
#	227742
#	241262
#	255920
#	271092
#	285147
#
# Disc length: 3940 seconds
#
# Revision: 0
# Processed by: cddbd v1.4PL0 Copyright (c) Steve Scherf et al.
# Submitted via: dBpowerAMP V4.0
#
DISCID=230f6216
DTITLE=Mahalia Jackson - The Ultimate Collection
DYEAR=1999
DGENRE=Gospel
TTITLE0=Dig A Little Deeper
TTITLE1=Move On Up A Little Higher (Part 1)
TTITLE2=Move On Up A Little Higher (Part 2)
TTITLE3=I Have A Friend
TTITLE4=Get Away Jordan
TTITLE5=There's Not A Friend Like Jesus
TTITLE6=(I'm Going To) Wait Until My Change Comes
TTITLE7=Oh My Lord
TTITLE8=God Shall Wipe All Tears Away
TTITLE9=Walk With Me
TTITLE10=I'm Going To Tell God
TTITLE11=I Want To Rest
TTITLE12=What Could I Do?
TTITLE13=Keep Me Every Day
TTITLE14=God's Gonna Separate The Wheat From The Tares
TTITLE15=A Child Of The King
TTITLE16=Tired
TTITLE17=Even Me
TTITLE18=I Can Put My Trust In Jesus
TTITLE19=Since The Fire Started Burning In My Soul
TTITLE20=Prayer Changes Things
TTITLE21=Amazing Grace
EXTD=
EXTT0=
EXTT1=
EXTT2=
EXTT3=
EXTT4=
EXTT5=
EXTT6=
EXTT7=
EXTT8=
EXTT9=
EXTT10=
EXTT11=
EXTT12=
EXTT13=
EXTT14=
EXTT15=
EXTT16=
EXTT17=
EXTT18=
EXTT19=
EXTT20=
EXTT21=
PLAYORDER=
